<?xml version="1.0" encoding="iso-8859-1"?>
<!-- Generator: Adobe Illustrator 16.0.3, SVG Export Plug-In . SVG Version: 6.00 Build 0)  -->
<!DOCTYPE svg PUBLIC "-//W3C//DTD SVG 1.1//EN" "http://www.w3.org/Graphics/SVG/1.1/DTD/svg11.dtd">
<svg version="1.1" id="Layer_1" xmlns="http://www.w3.org/2000/svg" xmlns:xlink="http://www.w3.org/1999/xlink" x="0px" y="0px"
	 width="128px" height="128px" viewBox="0 0 128 128" style="enable-background:new 0 0 128 128;" xml:space="preserve">
<path d="M112,55.998c0,2.082-0.812,4.128-2.344,5.659l-40,40.001c-1.502,1.501-3.535,2.343-5.656,2.343
	c-2.123,0-4.158-0.842-5.658-2.343l-40-40.001C16.812,60.126,16,58.08,16,55.998c0-1.03,0.199-2.069,0.609-3.06
	c1.238-2.988,4.155-4.938,7.391-4.938h20v-40c0-4.419,3.582-8,8-8h24c4.418,0,8,3.581,8,8v40h20c3.234,0,6.152,1.949,7.391,4.938
	C111.801,53.929,112,54.968,112,55.998z M112,112.001H16v-32H0v32c0,8.836,7.163,16,16,16h96c8.836,0,16-7.164,16-16v-32h-16
	V112.001z"/>
</svg>
