<?xml version="1.0" encoding="iso-8859-1"?>
<!-- Generator: Adobe Illustrator 16.0.3, SVG Export Plug-In . SVG Version: 6.00 Build 0)  -->
<!DOCTYPE svg PUBLIC "-//W3C//DTD SVG 1.1//EN" "http://www.w3.org/Graphics/SVG/1.1/DTD/svg11.dtd">
<svg version="1.1" id="Layer_1" xmlns="http://www.w3.org/2000/svg" xmlns:xlink="http://www.w3.org/1999/xlink" x="0px" y="0px"
	 width="128px" height="128px" viewBox="0 0 128 128" style="enable-background:new 0 0 128 128;" xml:space="preserve">
<path d="M32,96.001c-2.049,0-4.095-0.781-5.657-2.343l-24-24C0.782,68.097,0,66.051,0,64.005c-0.002-2.049,0.779-4.098,2.343-5.661
	l24-24c1.562-1.561,3.607-2.342,5.653-2.343c2.049-0.001,4.098,0.78,5.661,2.343C39.219,35.905,40,37.951,40,39.997
	c0.002,2.049-0.779,4.098-2.343,5.661L19.314,64.001l18.344,18.343C39.219,83.905,40,85.951,40,87.997
	c0.002,2.049-0.779,4.098-2.343,5.661C36.095,95.22,34.048,96.001,32,96.001z M101.658,93.658l24-24
	c1.561-1.562,2.342-3.607,2.342-5.653c0.002-2.049-0.779-4.098-2.342-5.661l-24-24c-1.562-1.561-3.609-2.342-5.654-2.343
	c-2.049-0.001-4.098,0.78-5.66,2.343C88.781,35.905,88,37.951,88,39.997c-0.002,2.049,0.779,4.098,2.344,5.661l18.342,18.343
	L90.344,82.344C88.781,83.905,88,85.951,88,87.997c-0.002,2.049,0.779,4.098,2.344,5.661c1.562,1.562,3.607,2.343,5.656,2.343
	S100.096,95.22,101.658,93.658z M63.761,97.941l16-64c1.072-4.286-1.535-8.63-5.82-9.701c-0.648-0.162-1.299-0.238-1.939-0.239
	c-3.584-0.002-6.854,2.421-7.762,6.06l-16,64c-1.071,4.286,1.534,8.63,5.82,9.701c0.651,0.163,1.304,0.239,1.946,0.239
	C59.591,104.001,62.852,101.576,63.761,97.941z"/>
</svg>
