<?xml version="1.0" encoding="iso-8859-1"?>
<!-- Generator: Adobe Illustrator 16.0.3, SVG Export Plug-In . SVG Version: 6.00 Build 0)  -->
<!DOCTYPE svg PUBLIC "-//W3C//DTD SVG 1.1//EN" "http://www.w3.org/Graphics/SVG/1.1/DTD/svg11.dtd">
<svg version="1.1" id="Layer_1" xmlns="http://www.w3.org/2000/svg" xmlns:xlink="http://www.w3.org/1999/xlink" x="0px" y="0px"
	 width="128px" height="128px" viewBox="0 0 128 128" style="enable-background:new 0 0 128 128;" xml:space="preserve">
<g>
	<path d="M86.545,30.546h9.463c-3.442-4.84-7.85-8.96-12.952-12.076C81.222,19.629,80,21.669,80,24
		C80,27.615,82.931,30.546,86.545,30.546z"/>
	<path d="M103.326,47.965c-0.979-5.51-3.001-10.668-5.871-15.26v8.749C97.455,44.842,100.027,47.628,103.326,47.965z"/>
	<path d="M89.455,41.454v-2.908h-2.91C78.524,38.546,72,32.021,72,24c0-3.519,1.257-6.748,3.344-9.266C70.563,12.97,65.395,12,60,12
		c-24.261,0-44,19.514-44,43.5c0,31.639,37.229,68.81,38.814,70.377C56.247,127.292,58.124,128,60,128s3.753-0.708,5.186-2.123
		c1.576-1.56,38.411-38.349,38.797-69.878C95.97,55.989,89.455,49.469,89.455,41.454z M60,77.25c-12.15,0-22-9.737-22-21.75
		c0-12.012,9.85-21.75,22-21.75s22,9.738,22,21.75C82,67.513,72.15,77.25,60,77.25z"/>
</g>
<g>
	<g>
		<path d="M121.455,17.455h-10.91V6.545C110.545,2.93,107.615,0,104,0s-6.545,2.93-6.545,6.545v10.91h-10.91
			C82.931,17.455,80,20.385,80,24s2.931,6.546,6.545,6.546h10.91v10.908c0,3.615,2.93,6.546,6.545,6.546s6.545-2.931,6.545-6.546
			V30.546h10.91c3.615,0,6.545-2.931,6.545-6.546S125.07,17.455,121.455,17.455z"/>
	</g>
</g>
</svg>
